<?xml version="1.0" encoding="iso-8859-1"?>
<!-- Generator: Adobe Illustrator 19.0.0, SVG Export Plug-In . SVG Version: 6.00 Build 0)  -->
<svg version="1.1" id="Capa_1" xmlns="http://www.w3.org/2000/svg" xmlns:xlink="http://www.w3.org/1999/xlink" x="0px" y="0px"
	 viewBox="0 0 511.993 511.993" style="enable-background:new 0 0 511.993 511.993;" xml:space="preserve">
<linearGradient id="SVGID_1_" gradientUnits="userSpaceOnUse" x1="69.654" y1="448.2119" x2="416.1364" y2="101.7296" gradientTransform="matrix(1.0449 0 0 -1.0449 2.1993 543.3086)">
	<stop  offset="0" style="stop-color:#84CAFF"/>
	<stop  offset="1" style="stop-color:#00A6FF"/>
</linearGradient>
<circle style="fill:#000000;" cx="255.996" cy="255.996" r="255.996"/>
<circle style="fill:url(#SVGID_1_);" cx="255.996" cy="255.996" r="250.996"/>
<linearGradient id="SVGID_2_" gradientUnits="userSpaceOnUse" x1="169.8952" y1="253.6672" x2="343.9052" y2="253.6672" gradientTransform="matrix(1.0449 0 0 -1.0449 2.1993 543.3086)">
	<stop  offset="0" style="stop-color:#FF764C"/>
	<stop  offset="1" style="stop-color:#ED2400"/>
</linearGradient>
<path style="fill:url(#SVGID_2_);" d="M350.183,214.759c-3.741-27.639-13.54-44.074-43.256-44.074c-19.344,0-82.511,0-101.855,0
	c-29.716,0-39.514,16.434-43.256,44.074c-3.673,27.137-21.346,171.068-21.346,171.068h231.059
	C371.529,385.827,353.857,241.896,350.183,214.759z"/>
<linearGradient id="SVGID_3_" gradientUnits="userSpaceOnUse" x1="169.8952" y1="134.4317" x2="343.9052" y2="134.4317" gradientTransform="matrix(1.0449 0 0 -1.0449 2.1993 543.3086)">
	<stop  offset="0" style="stop-color:#FFFFFF"/>
	<stop  offset="1" style="stop-color:#E4E4E4"/>
</linearGradient>
<path style="fill:url(#SVGID_3_);" d="M377.397,428.841H134.603c-11.923,0-21.679-9.756-21.679-21.679v-8.637
	c0-11.923,9.756-21.679,21.679-21.679h242.793c11.923,0,21.679,9.756,21.679,21.679v8.637
	C399.076,419.086,389.32,428.841,377.397,428.841z"/>
<g>
	
		<linearGradient id="SVGID_4_" gradientUnits="userSpaceOnUse" x1="93.8952" y1="431.2757" x2="368.9052" y2="431.2757" gradientTransform="matrix(1.0449 0 0 -1.0449 2.1993 543.3086)">
		<stop  offset="0" style="stop-color:#FFFFFF"/>
		<stop  offset="1" style="stop-color:#E4E4E4"/>
	</linearGradient>
	<rect x="242.319" y="44.93" style="fill:url(#SVGID_4_);" width="27.355" height="95.492"/>
	
		<linearGradient id="SVGID_5_" gradientUnits="userSpaceOnUse" x1="93.8952" y1="403.1087" x2="368.9052" y2="403.1087" gradientTransform="matrix(1.0449 0 0 -1.0449 2.1993 543.3086)">
		<stop  offset="0" style="stop-color:#FFFFFF"/>
		<stop  offset="1" style="stop-color:#E4E4E4"/>
	</linearGradient>
	<polygon style="fill:url(#SVGID_5_);" points="184.531,145.775 159.674,157.19 132.693,98.439 157.55,87.024 	"/>
	
		<linearGradient id="SVGID_6_" gradientUnits="userSpaceOnUse" x1="93.8952" y1="403.1087" x2="368.9052" y2="403.1087" gradientTransform="matrix(1.0449 0 0 -1.0449 2.1993 543.3086)">
		<stop  offset="0" style="stop-color:#FFFFFF"/>
		<stop  offset="1" style="stop-color:#E4E4E4"/>
	</linearGradient>
	<polygon style="fill:url(#SVGID_6_);" points="327.469,145.775 352.326,157.19 379.307,98.439 354.45,87.024 	"/>
	
		<linearGradient id="SVGID_7_" gradientUnits="userSpaceOnUse" x1="93.8952" y1="316.6462" x2="368.9052" y2="316.6462" gradientTransform="matrix(1.0449 0 0 -1.0449 2.1993 543.3086)">
		<stop  offset="0" style="stop-color:#FFFFFF"/>
		<stop  offset="1" style="stop-color:#E4E4E4"/>
	</linearGradient>
	<polygon style="fill:url(#SVGID_7_);" points="377.007,201.018 378.878,228.306 443.377,223.883 441.506,196.595 	"/>
	
		<linearGradient id="SVGID_8_" gradientUnits="userSpaceOnUse" x1="93.8952" y1="316.6462" x2="368.9052" y2="316.6462" gradientTransform="matrix(1.0449 0 0 -1.0449 2.1993 543.3086)">
		<stop  offset="0" style="stop-color:#FFFFFF"/>
		<stop  offset="1" style="stop-color:#E4E4E4"/>
	</linearGradient>
	<polygon style="fill:url(#SVGID_8_);" points="134.994,201.018 133.122,228.306 68.623,223.883 70.494,196.595 	"/>
</g>
<g>
</g>
<g>
</g>
<g>
</g>
<g>
</g>
<g>
</g>
<g>
</g>
<g>
</g>
<g>
</g>
<g>
</g>
<g>
</g>
<g>
</g>
<g>
</g>
<g>
</g>
<g>
</g>
<g>
</g>
</svg>
