<svg height="512pt" viewBox="0 0 512 512" width="512pt" xmlns="http://www.w3.org/2000/svg"><path d="m512 256c0 141.386719-114.613281 256-256 256s-256-114.613281-256-256 114.613281-256 256-256 256 114.613281 256 256zm0 0" fill="#ffe000"/><path d="m262.335938 511.921875c138.457031-3.367187 249.664062-116.65625 249.664062-255.921875 0-2.164062-.027344-4.320312-.082031-6.472656l-50.496094-50.496094-378.8125 133.160156zm0 0" fill="#ffc200"/><path d="m86.417969 257.039062h339.164062v42.285157h-339.164062zm0 0" fill="#2d5396"/><path d="m255.714844 257.039062h169.867187v42.285157h-169.867187zm0 0" fill="#1b3b6b"/><path d="m425.582031 257.039062 35.839844-58.007812-95.15625-59.964844-110.265625-26.121094-110.269531 26.121094-95.152344 59.964844 35.839844 58.007812zm0 0" fill="#4a7aff"/><path d="m461.421875 199.03125-95.15625-59.964844-110.265625-26.121094-.285156.070313v144.023437h169.867187zm0 0" fill="#2864f0"/><path d="m278.121094 180.914062v-.351562h-44.242188v.351562c0 10.25-8.3125 18.558594-18.558594 18.558594v34.015625c0 13.601563 6.746094 26.316407 18.007813 33.941407l22.671875 15.34375 22.671875-15.34375c11.261719-7.625 18.007813-20.339844 18.007813-33.941407v-34.015625c-10.25 0-18.558594-8.308594-18.558594-18.558594zm0 0" fill="#abddff"/><path d="m296.679688 199.472656c-10.246094 0-18.558594-8.308594-18.558594-18.558594v-.351562h-22.40625v102.019531l.285156.191407 22.671875-15.34375c11.261719-7.625 18.011719-20.339844 18.011719-33.941407zm0 0" fill="#78beff"/><path d="m425.582031 299.324219.222657.246093c10.089843 10.964844 7.867187 28.378907-4.660157 36.453126-100.789062 64.992187-230.066406 65.886718-331.742187 2.289062l-.308594-.191406c-13.847656-8.660156-15.203125-28.316406-2.675781-38.796875zm0 0" fill="#1b3b6b"/><path d="m425.804688 299.570312-.222657-.246093h-169.867187v86.0625c57.589844-.417969 115.066406-16.886719 165.429687-49.363281 12.527344-8.074219 14.75-25.488282 4.660157-36.453126zm0 0" fill="#12254c"/></svg>