<svg xmlns="http://www.w3.org/2000/svg" height="512pt" version="1.1" viewBox="0 0 512 512.001" width="512pt">
<g id="surface1">
<path d="M 512 256 C 512 397.386719 397.386719 512 256 512 C 114.617188 512 0 397.386719 0 256 C 0 114.613281 114.617188 0 256 0 C 397.386719 0 512 114.613281 512 256 Z M 512 256 " style=" stroke:none;fill-rule:nonzero;fill:rgb(100%,0%,40.784314%);fill-opacity:1;" />
<path d="M 511.070312 277.769531 L 420.703125 187.398438 L 415.902344 194.136719 L 298.765625 77 L 285.179688 107.402344 L 252.089844 74.316406 L 221.632812 117.984375 L 290.695312 187.042969 L 203.40625 164.832031 L 88.167969 210.949219 L 94.839844 359.777344 L 246.886719 511.820312 C 249.914062 511.929688 252.949219 512 256 512 C 390.050781 512 500.019531 408.960938 511.070312 277.769531 Z M 511.070312 277.769531 " style=" stroke:none;fill-rule:nonzero;fill:rgb(89.803922%,5.490196%,43.921569%);fill-opacity:1;" />
<path d="M 183.546875 396.773438 C 114.59375 396.773438 58.5 340.679688 58.5 271.730469 C 58.5 202.777344 114.59375 146.683594 183.546875 146.683594 C 252.496094 146.683594 308.59375 202.777344 308.59375 271.730469 C 308.59375 340.679688 252.496094 396.773438 183.546875 396.773438 Z M 183.546875 183.683594 C 134.996094 183.683594 95.5 223.179688 95.5 271.730469 C 95.5 320.277344 134.996094 359.777344 183.546875 359.777344 C 232.09375 359.777344 271.59375 320.277344 271.59375 271.730469 C 271.59375 223.179688 232.09375 183.683594 183.546875 183.683594 Z M 183.546875 183.683594 " style=" stroke:none;fill-rule:nonzero;fill:rgb(100%,83.137255%,0%);fill-opacity:1;" />
<path d="M 308.59375 271.730469 C 308.59375 229.65625 287.707031 192.375 255.761719 169.699219 L 255.761719 221.421875 C 265.734375 235.691406 271.59375 253.039062 271.59375 271.730469 C 271.59375 290.421875 265.734375 307.765625 255.761719 322.035156 L 255.761719 373.761719 C 287.707031 351.082031 308.59375 313.800781 308.59375 271.730469 Z M 308.59375 271.730469 " style=" stroke:none;fill-rule:nonzero;fill:rgb(99.215686%,72.941176%,7.058824%);fill-opacity:1;" />
<path d="M 328.453125 396.773438 C 259.503906 396.773438 203.410156 340.679688 203.410156 271.730469 C 203.410156 202.777344 259.503906 146.683594 328.453125 146.683594 C 397.40625 146.683594 453.5 202.777344 453.5 271.730469 C 453.5 340.679688 397.40625 396.773438 328.453125 396.773438 Z M 328.453125 183.683594 C 279.90625 183.683594 240.410156 223.179688 240.410156 271.730469 C 240.410156 320.277344 279.90625 359.777344 328.453125 359.777344 C 377.003906 359.777344 416.5 320.277344 416.5 271.730469 C 416.5 223.179688 377.003906 183.683594 328.453125 183.683594 Z M 328.453125 183.683594 " style=" stroke:none;fill-rule:nonzero;fill:rgb(99.215686%,72.941176%,7.058824%);fill-opacity:1;" />
<path d="M 328.453125 146.683594 C 301.363281 146.683594 276.261719 155.347656 255.761719 170.042969 L 255.761719 222.109375 C 271.636719 198.925781 298.296875 183.683594 328.453125 183.683594 C 377.003906 183.683594 416.5 223.179688 416.5 271.730469 C 416.5 320.277344 377.003906 359.777344 328.453125 359.777344 C 298.296875 359.777344 271.636719 344.53125 255.761719 321.351562 L 255.761719 373.417969 C 276.261719 388.113281 301.363281 396.777344 328.453125 396.777344 C 397.40625 396.777344 453.5 340.679688 453.5 271.730469 C 453.5 202.777344 397.40625 146.683594 328.453125 146.683594 Z M 328.453125 146.683594 " style=" stroke:none;fill-rule:nonzero;fill:rgb(100%,63.921569%,0%);fill-opacity:1;" />
<path d="M 209.773438 89.382812 C 209.773438 76.214844 220.445312 65.539062 233.613281 65.539062 C 243.890625 65.539062 252.652344 72.042969 256 81.15625 C 259.351562 72.042969 268.109375 65.539062 278.386719 65.539062 C 291.554688 65.539062 302.230469 76.214844 302.230469 89.382812 C 302.230469 123.980469 256 142.238281 256 142.238281 C 256 142.238281 209.773438 123.230469 209.773438 89.382812 Z M 209.773438 89.382812 " style=" stroke:none;fill-rule:nonzero;fill:rgb(100%,100%,100%);fill-opacity:1;" />
<path d="M 256 142.238281 C 256 142.238281 302.230469 123.980469 302.230469 89.382812 C 302.230469 76.214844 291.554688 65.539062 278.386719 65.539062 C 268.109375 65.539062 259.351562 72.042969 256 81.15625 Z M 256 142.238281 " style=" stroke:none;fill-rule:nonzero;fill:rgb(91.372549%,92.941176%,96.078431%);fill-opacity:1;" />
</g>
</svg>