<?xml version="1.0" encoding="iso-8859-1"?>
<!-- Generator: Adobe Illustrator 19.0.0, SVG Export Plug-In . SVG Version: 6.00 Build 0)  -->
<svg version="1.1" id="Layer_1" xmlns="http://www.w3.org/2000/svg" xmlns:xlink="http://www.w3.org/1999/xlink" x="0px" y="0px"
	 viewBox="0 0 512 512" style="enable-background:new 0 0 512 512;" xml:space="preserve">
<circle style="fill:#C1321F;" cx="256" cy="256" r="256"/>
<path style="fill:#A82116;" d="M500.671,331.521L375.922,206.772l-57.137-6.359l-40.091-40.091l-69.382-22.84l-46.976,13.791
	l-50.209,50.209l30.699,109.473l189.48,189.478C412.582,475.4,475.888,411.908,500.671,331.521z"/>
<path style="fill:#FFD15D;" d="M205.145,128.862c-56.173,0-101.71,45.537-101.71,101.71s45.537,101.71,101.71,101.71
	s101.71-45.537,101.71-101.71S261.318,128.862,205.145,128.862z M205.145,306.855c-42.131,0-76.283-34.152-76.283-76.283
	s34.152-76.283,76.283-76.283s76.283,34.152,76.283,76.283S247.275,306.855,205.145,306.855z"/>
<path style="fill:#F9B54C;" d="M205.145,128.862c-0.29,0-0.574,0.019-0.862,0.022v25.428c0.288-0.003,0.572-0.022,0.862-0.022
	c42.131,0,76.283,34.152,76.283,76.283s-34.152,76.283-76.283,76.283c-0.29,0-0.574-0.019-0.862-0.022v25.428
	c0.288,0.002,0.572,0.022,0.862,0.022c56.173,0,101.71-45.537,101.71-101.71S261.318,128.862,205.145,128.862z"/>
<path style="fill:#FFD15D;" d="M306.855,179.717c-56.173,0-101.71,45.537-101.71,101.71s45.537,101.71,101.71,101.71
	s101.71-45.537,101.71-101.71S363.029,179.717,306.855,179.717z M306.855,357.71c-42.131,0-76.283-34.152-76.283-76.283
	s34.152-76.283,76.283-76.283s76.283,34.152,76.283,76.283S348.986,357.71,306.855,357.71z"/>
<path style="fill:#F9B54C;" d="M306.855,179.717c-0.29,0-0.574,0.019-0.862,0.022v25.428c0.288-0.003,0.572-0.022,0.862-0.022
	c42.131,0,76.283,34.152,76.283,76.283s-34.152,76.283-76.283,76.283c-0.29,0-0.574-0.019-0.862-0.022v25.428
	c0.288,0.002,0.572,0.022,0.862,0.022c56.173,0,101.71-45.537,101.71-101.71C408.566,225.254,363.029,179.717,306.855,179.717z"/>
<g>
</g>
<g>
</g>
<g>
</g>
<g>
</g>
<g>
</g>
<g>
</g>
<g>
</g>
<g>
</g>
<g>
</g>
<g>
</g>
<g>
</g>
<g>
</g>
<g>
</g>
<g>
</g>
<g>
</g>
</svg>
